# xmcd CD database file
#
# Track frame offsets:
#	150
#	20227
#	49407
#	69142
#
# Disc length: 1153 seconds
#
# Revision: 1
# Processed by: cddbd v1.5.2PL0 Copyright (c) Steve Scherf et al.
# Submitted via: CDex 1.79
#
DISCID=32047f04
DTITLE=Rod Stewart - Lady Luck
DYEAR=1995
DGENRE=Other
TTITLE0=Lady Luck
TTITLE1=The Killing Of Georgie Parts I and II
TTITLE2=Sailing
TTITLE3=The First Cut Is The Deepest
EXTD=YEAR: 1995
EXTT0=
EXTT1=
EXTT2=
EXTT3=
PLAYORDER=
